<svg width="1322" height="695" viewBox="0 0 1322 695" fill="none" xmlns="http://www.w3.org/2000/svg">
<path d="M1223.5 1.5C966 344.5 361.2 940.7 2 581.5M2 581.5L12.5 630.5M2 581.5L49.5 586.5" stroke="#E4E4E7" stroke-width="3"/>
<path d="M982.516 357.753L972.618 368.932C970.991 367.856 969.337 367.135 967.656 366.77C965.959 366.39 964.273 366.34 962.6 366.619C960.926 366.898 959.304 367.495 957.734 368.412C956.178 369.311 954.738 370.51 953.412 372.007C951.016 374.713 949.602 377.664 949.168 380.863C948.718 384.046 949.279 387.32 950.852 390.686C952.408 394.037 954.998 397.317 958.623 400.526C962.349 403.826 965.97 406.045 969.484 407.184C973.014 408.305 976.315 408.435 979.386 407.572C982.457 406.709 985.16 404.959 987.495 402.322C988.806 400.841 989.823 399.298 990.546 397.692C991.285 396.07 991.717 394.433 991.842 392.784C991.95 391.119 991.746 389.481 991.229 387.87C990.728 386.242 989.893 384.683 988.723 383.192L998.673 372.058C1000.82 374.472 1002.49 377.244 1003.69 380.375C1004.9 383.473 1005.52 386.768 1005.55 390.26C1005.58 393.719 1004.93 397.237 1003.58 400.812C1002.24 404.356 1000.08 407.804 997.112 411.156C992.984 415.818 988.238 419.053 982.874 420.86C977.525 422.65 971.909 422.839 966.027 421.425C960.16 419.994 954.385 416.763 948.702 411.731C943.001 406.684 939.101 401.318 937.001 395.633C934.9 389.949 934.431 384.342 935.592 378.814C936.736 373.27 939.342 368.201 943.41 363.607C946.092 360.578 949.003 358.147 952.144 356.314C955.3 354.464 958.584 353.258 961.995 352.697C965.389 352.12 968.818 352.242 972.281 353.062C975.759 353.865 979.171 355.428 982.516 357.753ZM980.679 322.955L1032.95 369.238L1023.32 380.111L971.052 333.828L980.679 322.955ZM1040.66 360.528L1001.46 325.816L1011.09 314.943L1050.29 349.655L1040.66 360.528ZM1001.24 315.879C999.811 317.496 998.047 318.408 995.95 318.616C993.852 318.791 992.045 318.209 990.531 316.868C989.034 315.542 988.254 313.835 988.191 311.745C988.127 309.624 988.81 307.755 990.241 306.139C991.673 304.522 993.437 303.626 995.536 303.45C997.632 303.242 999.429 303.801 1000.93 305.127C1002.44 306.468 1003.23 308.199 1003.3 310.32C1003.36 312.41 1002.67 314.262 1001.24 315.879ZM1074.45 323.91C1070.9 327.925 1066.99 330.626 1062.73 332.012C1058.46 333.366 1054.12 333.469 1049.7 332.321C1045.3 331.155 1041.12 328.817 1037.15 325.307C1033.14 321.751 1030.3 317.858 1028.64 313.628C1026.98 309.366 1026.58 305.044 1027.42 300.661C1028.25 296.264 1030.42 292.083 1033.93 288.118C1036.96 284.698 1040.23 282.253 1043.75 280.784C1047.26 279.314 1050.81 278.825 1054.38 279.316C1057.95 279.808 1061.32 281.318 1064.48 283.846L1055.4 294.107C1053.19 292.663 1050.93 292.035 1048.64 292.223C1046.35 292.378 1044.32 293.452 1042.56 295.442C1041.07 297.127 1040.22 299.006 1040.03 301.078C1039.83 303.119 1040.29 305.257 1041.41 307.491C1042.53 309.725 1044.32 311.935 1046.79 314.12C1049.29 316.334 1051.71 317.877 1054.07 318.748C1056.44 319.603 1058.64 319.807 1060.68 319.361C1062.71 318.916 1064.47 317.851 1065.96 316.166C1067.06 314.924 1067.8 313.583 1068.16 312.144C1068.54 310.688 1068.53 309.208 1068.13 307.702C1067.73 306.165 1066.93 304.684 1065.74 303.259L1074.82 292.999C1077.66 295.821 1079.58 298.973 1080.56 302.455C1081.55 305.905 1081.55 309.471 1080.56 313.154C1079.58 316.836 1077.54 320.421 1074.45 323.91ZM1092.8 278.92L1079.78 267.346L1081.18 265.763L1077.42 240.03L1088.47 227.549L1093.23 261.867L1090.95 264.445L1092.8 278.92ZM1095.35 298.761L1043.08 252.477L1052.71 241.604L1104.98 287.888L1095.35 298.761ZM1117.05 274.258L1089.76 270.676L1088.49 256.625L1128.33 261.521L1117.05 274.258ZM1134.09 209.351L1156.75 229.419L1147.12 240.292L1094.85 194.009L1104.21 183.442L1124.19 201.137L1124.6 200.678C1123.07 197.744 1122.52 194.71 1122.96 191.576C1123.38 188.427 1124.91 185.364 1127.54 182.386C1129.95 179.663 1132.65 177.817 1135.64 176.847C1138.62 175.844 1141.71 175.761 1144.92 176.597C1148.12 177.4 1151.25 179.166 1154.3 181.895L1179.26 203.997L1169.63 214.87L1146.61 194.486C1144.21 192.329 1141.79 191.277 1139.34 191.329C1136.91 191.364 1134.72 192.488 1132.76 194.7C1131.45 196.18 1130.6 197.769 1130.22 199.466C1129.86 201.147 1130 202.845 1130.63 204.562C1131.26 206.246 1132.42 207.842 1134.09 209.351ZM1203.42 178.252C1199.85 182.284 1195.96 185.033 1191.75 186.496C1187.54 187.927 1183.23 188.092 1178.84 186.991C1174.42 185.875 1170.15 183.486 1166.01 179.825C1161.98 176.254 1159.13 172.338 1157.47 168.075C1155.81 163.813 1155.39 159.508 1156.2 155.159C1157.03 150.794 1159.15 146.689 1162.56 142.843C1164.85 140.257 1167.4 138.218 1170.2 136.727C1173.01 135.204 1175.97 134.34 1179.1 134.134C1182.24 133.911 1185.48 134.438 1188.81 135.717C1192.12 136.981 1195.45 139.089 1198.78 142.042L1201.77 144.687L1172.46 177.791L1165.72 171.825L1185.97 148.955C1184.4 147.569 1182.71 146.682 1180.9 146.293C1179.09 145.904 1177.31 146.012 1175.56 146.617C1173.81 147.191 1172.23 148.269 1170.83 149.851C1169.37 151.502 1168.46 153.304 1168.09 155.258C1167.73 157.18 1167.86 159.064 1168.51 160.908C1169.13 162.738 1170.21 164.347 1171.75 165.735L1178.15 171.407C1180.09 173.125 1182.09 174.251 1184.13 174.787C1186.19 175.306 1188.19 175.241 1190.13 174.591C1192.07 173.942 1193.85 172.707 1195.46 170.886C1196.53 169.678 1197.34 168.422 1197.89 167.116C1198.44 165.811 1198.69 164.5 1198.64 163.183C1198.59 161.865 1198.24 160.582 1197.59 159.334L1207.15 149.866C1209.12 152.515 1210.3 155.43 1210.7 158.61C1211.1 161.757 1210.71 165.017 1209.51 168.391C1208.31 171.732 1206.28 175.019 1203.42 178.252ZM1224.87 152.484L1185.67 117.771L1195 107.23L1201.84 113.287L1202.2 112.878C1200.4 110.009 1199.63 107.182 1199.87 104.398C1200.11 101.599 1201.2 99.1013 1203.14 96.9062C1203.62 96.3617 1204.17 95.8048 1204.8 95.2355C1205.43 94.6662 1206.01 94.196 1206.55 93.825L1216.2 102.368C1215.59 102.742 1214.83 103.328 1213.91 104.124C1213 104.921 1212.21 105.693 1211.54 106.442C1210.13 108.042 1209.21 109.78 1208.79 111.657C1208.37 113.501 1208.45 115.332 1209.03 117.149C1209.62 118.948 1210.72 120.556 1212.32 121.972L1234.5 141.611L1224.87 152.484ZM1265.88 107.71C1262.31 111.743 1258.42 114.491 1254.21 115.955C1250 117.386 1245.69 117.551 1241.29 116.45C1236.88 115.333 1232.6 112.945 1228.47 109.283C1224.44 105.713 1221.59 101.796 1219.93 97.534C1218.27 93.2717 1217.85 88.9664 1218.66 84.6181C1219.49 80.2529 1221.61 76.1474 1225.02 72.3019C1227.31 69.7154 1229.85 67.6768 1232.66 66.186C1235.47 64.6631 1238.43 63.7985 1241.56 63.5924C1244.7 63.3693 1247.94 63.8971 1251.27 65.176C1254.58 66.4398 1257.91 68.5481 1261.24 71.5011L1264.23 74.1452L1234.92 107.25L1228.18 101.283L1248.43 78.414C1246.86 77.028 1245.17 76.1404 1243.36 75.7513C1241.55 75.3623 1239.77 75.4705 1238.02 76.0759C1236.27 76.6493 1234.69 77.7273 1233.29 79.3097C1231.83 80.9603 1230.92 82.7626 1230.55 84.7168C1230.19 86.6389 1230.32 88.5222 1230.97 90.3669C1231.59 92.1964 1232.67 93.8052 1234.21 95.1933L1240.61 100.866C1242.55 102.583 1244.55 103.71 1246.59 104.246C1248.65 104.765 1250.65 104.699 1252.59 104.05C1254.53 103.401 1256.31 102.166 1257.92 100.345C1258.99 99.137 1259.8 97.8803 1260.35 96.5751C1260.9 95.2698 1261.15 93.9585 1261.1 92.6412C1261.05 91.3239 1260.7 90.0411 1260.05 88.793L1269.61 79.3242C1271.58 81.974 1272.76 84.8887 1273.16 88.0682C1273.56 91.2156 1273.17 94.4759 1271.97 97.8492C1270.77 101.19 1268.74 104.477 1265.88 107.71ZM1246.56 22.6676L1282.28 56.0704L1274.01 65.4121L1236.5 34.0257L1246.56 22.6676ZM1294.48 75.2048C1292.99 76.8894 1291.11 77.8084 1288.85 77.9619C1286.57 78.1003 1284.6 77.4152 1282.93 75.9067C1281.25 74.4472 1280.34 72.5861 1280.22 70.3233C1280.1 68.0606 1280.79 66.0869 1282.28 64.4023C1283.71 62.7858 1285.56 61.8923 1287.84 61.7218C1290.12 61.5513 1292.09 62.1958 1293.78 63.6552C1294.89 64.6666 1295.65 65.8759 1296.07 67.2831C1296.5 68.6582 1296.58 70.0538 1296.33 71.4698C1296.06 72.8708 1295.44 74.1158 1294.48 75.2048Z" fill="white"/>
</svg>
