<svg width="444" height="405" viewBox="0 0 444 405" fill="none" xmlns="http://www.w3.org/2000/svg">
<path d="M51 217.5L216.5 52V118L117.5 217.5L136.5 236.5L102.5 271L51 217.5Z" fill="white"/>
<path d="M393.5 218L342.5 272L309.5 238.5L326 220L228 119L228 52L393.5 218Z" fill="white"/>
<path d="M189 184L54 317.5H123L189 251.5L222 284.5L255 251.5L321 317.5H388.5L255 184L222 217L189 184Z" fill="white"/>
<path d="M256.042 272V310.307V352.083L296.083 312.042L256.042 272Z" fill="white"/>
<path d="M188.042 272V310.307V352.083L148 312.042L188.042 272Z" fill="white"/>
</svg>
