<svg width="743" height="305" viewBox="0 0 743 305" fill="none" xmlns="http://www.w3.org/2000/svg">
<g clip-path="url(#clip0_106_246)">
<path d="M451.88 155.551L495.373 112.233L451.88 68.9163L465.14 55.7137L521.894 112.233L465.14 168.753L451.88 155.551Z" fill="#E6E6E6"/>
<path d="M345.355 94.8557H327.675V112.518H345.355V94.8557Z" fill="#E6E6E6"/>
<path d="M416.43 94.8557H398.75V112.518H416.43V94.8557Z" fill="#E6E6E6"/>
<path d="M380.893 94.8557H363.213V112.518H380.893V94.8557Z" fill="#E6E6E6"/>
<path d="M303.718 155.109L260.18 111.792L303.674 68.4751L290.414 55.2724L233.704 111.792L290.458 168.312L303.718 155.109Z" fill="#E6E6E6"/>
<path d="M451.88 147.161L495.373 103.844L451.88 60.5264L465.14 47.3237L521.894 103.844L465.14 160.364L451.88 147.161Z" fill="#D42D42"/>
<path d="M327.675 106.935H345.355V89.2722H327.675L327.675 106.935ZM416.43 89.2722H398.75V106.935H416.43V89.2722ZM363.212 106.935H380.893V89.2722H363.212V106.935Z" fill="#D42D42"/>
<path d="M303.718 146.719L260.18 103.402L303.674 60.0851L290.414 46.8824L233.704 103.402L290.458 159.922L303.718 146.719Z" fill="#D42D42"/>
<path d="M90.8066 287.955L100.704 290.345L114.644 253.345L100.036 249.817L90.8066 287.955Z" fill="#A0616A"/>
<path d="M86.1211 296.833L89.1604 284.274L108.525 288.951C111.784 289.742 114.596 291.792 116.343 294.651C118.091 297.51 118.632 300.946 117.848 304.203L117.781 304.479L86.1211 296.833Z" fill="#2F2E41"/>
<path d="M134.622 294.69L144.805 294.69L149.649 255.453L134.621 255.454L134.622 294.69Z" fill="#A0616A"/>
<path d="M132.155 291.499L152.078 291.498H152.078C155.433 291.498 158.65 292.83 161.023 295.199C163.395 297.569 164.728 300.783 164.728 304.134V304.419L132.156 304.42L132.155 291.499Z" fill="#2F2E41"/>
<path d="M132.233 281.113L133.907 220.072L131.652 195.321L127.252 214.369L108.024 277.008L91.4482 272.65L110.645 205.111L106.476 161.791L118.455 154.098L118.617 154.127L159.544 161.663L149.657 279.373L132.233 281.113Z" fill="#2F2E41"/>
<path d="M148.431 170.162C145.135 170.162 141.28 169.101 136.989 166.075C123.259 156.395 106.888 166.809 106.724 166.914L106.06 167.346L106.083 166.554C106.1 165.99 107.744 109.93 107.744 91.8909C107.744 73.2536 119.916 59.6458 123.646 55.9193C127.308 52.2609 130.389 52.3419 134.289 52.4432C134.961 52.4602 135.661 52.4788 136.398 52.4788C141.495 52.4788 146.45 57.3705 146.659 57.5787L146.758 57.6784L146.777 57.8178L160.919 164.196L160.811 164.333C160.746 164.417 156.102 170.162 148.431 170.162Z" fill="#CCCCCC"/>
<path d="M156.463 35.5947C161.867 25.719 158.234 13.3367 148.348 7.93815C138.463 2.53958 126.068 6.16903 120.664 16.0448C115.26 25.9205 118.893 38.3028 128.779 43.7013C138.664 49.0999 151.059 45.4704 156.463 35.5947Z" fill="#A0616A"/>
<path d="M169.791 187.195C168.826 186.448 168.037 185.498 167.478 184.413C166.92 183.328 166.607 182.134 166.561 180.915C166.515 179.696 166.737 178.482 167.211 177.358C167.685 176.234 168.401 175.228 169.306 174.41L157.722 147.112L172.89 149.901L181.566 175.396C182.84 177.007 183.479 179.03 183.361 181.08C183.243 183.13 182.376 185.066 180.924 186.52C179.473 187.974 177.538 188.846 175.486 188.971C173.434 189.095 171.408 188.463 169.791 187.195Z" fill="#A0616A"/>
<path d="M166.51 171.656L145.577 128.996L136.398 96.8887L136.406 68.9964C136.426 68.8862 138.584 58.0366 146.582 58.7869C153.834 59.4886 157.74 63.0311 159.642 70.6324C161.258 77.0895 159.048 96.2461 158.834 98.0539C160.237 101.378 181.289 151.488 177.804 157.522C177.674 157.757 177.484 157.954 177.253 158.092L180.984 165.96L166.51 171.656Z" fill="#CCCCCC"/>
<path d="M135.954 33.4975C138.4 33.8153 140.244 31.3158 141.1 29.0053C141.955 26.6948 142.607 24.0049 144.733 22.7568C147.638 21.0517 151.355 23.1025 154.676 22.5399C158.427 21.9046 160.866 17.9331 161.058 14.137C161.249 10.3409 159.737 6.68986 158.253 3.18989L157.735 7.53956C157.804 6.06535 157.494 4.59805 156.833 3.27799C156.172 1.95794 155.184 0.829291 153.962 7.62939e-06L154.629 6.38246C154.487 5.5019 154.173 4.65805 153.703 3.89932C153.234 3.14059 152.619 2.48191 151.894 1.96111C151.169 1.44031 150.349 1.06764 149.479 0.864476C148.61 0.66131 147.709 0.631652 146.828 0.777209L146.933 4.58012C142.601 4.06544 138.23 3.55004 133.885 3.94215C129.539 4.33426 125.163 5.70774 121.87 8.56668C116.943 12.8432 115.144 19.885 115.748 26.3771C116.352 32.8691 119.035 38.9679 121.831 44.8594C122.534 46.3417 123.507 48.0144 125.138 48.2032C126.604 48.3729 127.945 47.149 128.401 45.747C128.752 44.3086 128.738 42.8054 128.361 41.3735C127.949 39.1853 127.429 36.9486 127.817 34.7559C128.204 32.5632 129.783 30.3963 131.996 30.1276C134.209 29.8589 136.473 32.3855 135.409 34.3421L135.954 33.4975Z" fill="#2F2E41"/>
<path d="M640.884 184.477C640.203 183.702 639.7 182.787 639.412 181.797C639.123 180.806 639.056 179.765 639.214 178.746C639.372 177.727 639.751 176.754 640.326 175.898C640.901 175.041 641.656 174.32 642.54 173.787L637.319 149.265L649.461 154.018L652.558 176.575C653.356 178.118 653.561 179.899 653.133 181.582C652.704 183.265 651.673 184.732 650.234 185.706C648.795 186.68 647.048 187.093 645.325 186.867C643.602 186.64 642.021 185.79 640.884 184.477V184.477Z" fill="#FFB8B8"/>
<path d="M639.505 165.344L639.44 165.103C632.876 140.85 626.091 115.778 617.807 88.4793L617.753 88.3005L617.936 88.194C622.553 85.5024 629.493 85.6817 634.078 88.6105C636.154 89.946 637.768 91.8866 638.703 94.1693C639.638 96.4521 639.849 98.9668 639.305 101.373L645.347 132.843C647.804 143.13 650.346 153.778 652.775 164.277L652.844 164.575L652.468 164.599C648.044 164.88 643.474 165.17 639.812 165.331L639.505 165.344Z" fill="#CCCCCC"/>
<path d="M583.721 295.879H575.112L571.015 262.704H583.721V295.879Z" fill="#FFB8B8"/>
<path d="M585.917 304.216H558.156V303.865C558.16 301.003 559.299 298.26 561.325 296.236C563.351 294.212 566.097 293.074 568.962 293.071H585.917L585.917 304.216Z" fill="#2F2E41"/>
<path d="M664.85 288.784L656.647 291.395L642.66 261.029L654.768 257.174L664.85 288.784Z" fill="#FFB8B8"/>
<path d="M643.025 304.481L642.919 304.147C642.052 301.419 642.304 298.459 643.619 295.917C644.934 293.374 647.205 291.457 649.934 290.585L666.089 285.442L669.476 296.061L643.025 304.481Z" fill="#2F2E41"/>
<path d="M621.274 66.2535C630.8 66.2535 638.522 58.5389 638.522 49.0224C638.522 39.506 630.8 31.7914 621.274 31.7914C611.748 31.7914 604.025 39.506 604.025 49.0224C604.025 58.5389 611.748 66.2535 621.274 66.2535Z" fill="#FFB8B8"/>
<path d="M629.018 45.8289C629.116 38.879 626.204 31.9961 621.702 28.5355C619.581 26.8563 616.942 25.9645 614.235 26.0123C611.529 26.0601 608.923 27.0444 606.862 28.7975C602.43 32.4158 599.655 39.3991 599.89 46.3431C609.82 46.3714 619.751 46.3996 629.018 45.8289Z" fill="#2F2E41"/>
<path d="M588.637 285.2L588.291 285.167C580.801 284.432 573.056 283.674 565.736 283.587L565.338 283.582L565.392 283.188C567.126 270.64 567.862 257.595 568.573 244.98C569.275 232.523 570.001 219.642 571.691 207.409C572.407 204.133 573.104 200.896 573.799 197.671C579.547 170.981 584.977 145.772 596.185 120.818L596.291 120.582L596.547 120.613C607.063 121.884 617.168 125.717 625 131.405L625.152 131.515L625.144 131.702C624.993 135.578 624.837 139.585 625.068 143.235C628.623 148.169 630.978 153.863 631.948 159.864C632.917 165.865 632.474 172.01 630.654 177.81C633.738 188.106 636.926 198.749 640.179 209.247C648.078 230.882 656.252 253.271 664.632 275.966L664.769 276.338L664.383 276.429C658.354 277.843 652.135 279.301 645.999 279.866L645.768 279.888L645.658 279.683C630.012 250.596 617.288 220.033 607.673 188.441C605.579 194.819 602.563 200.577 599.641 206.154C596.846 211.227 594.387 216.477 592.28 221.871C590.986 232.479 590.643 243.973 590.312 255.087C589.998 265.596 589.702 275.522 588.675 284.856L588.637 285.2Z" fill="#2F2E41"/>
<path d="M615.385 28.8543C622.861 27.2451 631.131 28.776 637.003 33.8152C642.874 38.8545 645.856 47.5722 643.444 55.0487C641.032 62.5253 632.842 67.7857 625.438 65.855C627.559 59.8831 625.172 52.551 619.987 49.1111C613.838 45.0317 612.145 35.2924 615.385 28.8543Z" fill="#2F2E41"/>
<path d="M624.463 132.154L624.189 132.03C614.652 127.683 605.299 124.347 596.537 121.304L596.268 121.246L596.268 120.468L596.442 120.528C596.479 120.448 596.52 120.356 596.561 120.264C596.681 120 596.763 119.82 596.832 119.701L596.83 119.699C597.561 118.212 598.142 116.775 598.703 115.386C599.283 113.951 599.881 112.47 600.654 110.904C598.78 109.027 597.497 106.643 596.964 104.046C596.43 101.45 596.669 98.7537 597.65 96.2911C599.586 91.708 604.522 88.1385 609.707 87.5462C611.608 82.3205 615.842 71.3401 615.842 71.3401C615.842 71.3401 624.745 71.0959 628.326 70.642L628.386 70.6345L628.445 70.6475C636.262 72.3586 642.788 79.7479 644.315 88.6171C645.604 96.1027 643.647 104.665 638.804 112.727C636.319 116.669 633.572 120.44 630.581 124.014C628.399 126.739 626.339 129.312 624.628 131.904L624.463 132.154Z" fill="#CCCCCC"/>
<path d="M641.726 39.0652C636.493 38.2848 632.383 32.9403 632.978 27.6875C633.573 22.4347 638.774 18.1425 644.05 18.5499C649.326 18.9574 653.804 23.9971 653.584 29.2788C653.364 34.5605 648.408 40.0617 641.726 39.0652Z" fill="#2F2E41"/>
<path d="M640.909 35.6592C635.676 34.8788 631.566 29.5343 632.161 24.2815C632.421 22.4949 633.129 20.8029 634.219 19.3634C635.31 17.9239 636.748 16.7837 638.399 16.0492C634.178 16.972 630.546 20.6461 630.054 24.9831C629.46 30.2358 633.569 35.5804 638.802 36.3608C640.753 36.6665 642.75 36.3875 644.541 35.559C643.346 35.8096 642.116 35.8435 640.909 35.6592Z" fill="#2F2E41"/>
<path d="M539.391 128.25C539.895 127.35 540.592 126.572 541.43 125.97C542.269 125.368 543.229 124.958 544.244 124.767C545.258 124.576 546.302 124.61 547.302 124.866C548.303 125.121 549.234 125.593 550.032 126.248L571.437 113.16L570.997 126.18L550.738 136.613C549.548 137.879 547.935 138.665 546.204 138.822C544.473 138.98 542.745 138.497 541.346 137.466C539.947 136.435 538.976 134.928 538.615 133.229C538.255 131.53 538.531 129.759 539.391 128.25V128.25Z" fill="#FFB8B8"/>
<path d="M556.989 120.576L557.195 120.434C577.899 106.171 599.301 91.4262 622.306 74.5281L622.457 74.4174L622.618 74.554C626.697 78.0062 628.84 84.6026 627.603 89.8975C627.034 92.2976 625.741 94.465 623.898 96.1063C622.055 97.7475 619.752 98.7834 617.3 99.0734L589.611 115.25C580.72 120.991 571.518 126.933 562.418 132.72L562.16 132.884L562.012 132.537C560.273 128.464 558.476 124.256 557.104 120.86L556.989 120.576Z" fill="#CCCCCC"/>
<path d="M268.267 305H0.702268C0.516015 305 0.33739 304.926 0.205689 304.795C0.0739883 304.663 0 304.484 0 304.298C0 304.112 0.0739883 303.934 0.205689 303.802C0.33739 303.671 0.516015 303.597 0.702268 303.597H268.267C268.453 303.597 268.631 303.671 268.763 303.802C268.895 303.934 268.969 304.112 268.969 304.298C268.969 304.484 268.895 304.663 268.763 304.795C268.631 304.926 268.453 305 268.267 305Z" fill="#3F3D56"/>
<path d="M742.298 305H474.734C474.547 305 474.369 304.926 474.237 304.795C474.105 304.663 474.031 304.484 474.031 304.298C474.031 304.112 474.105 303.934 474.237 303.802C474.369 303.671 474.547 303.597 474.734 303.597H742.298C742.484 303.597 742.663 303.671 742.794 303.802C742.926 303.934 743 304.112 743 304.298C743 304.484 742.926 304.663 742.794 304.795C742.663 304.926 742.484 305 742.298 305Z" fill="#3F3D56"/>
</g>
<defs>
<clipPath id="clip0_106_246">
<rect width="743" height="305" fill="white"/>
</clipPath>
</defs>
</svg>
