<svg width="426" height="375" viewBox="0 0 426 375" fill="none" xmlns="http://www.w3.org/2000/svg">
<path d="M228.937 259.841C237.794 270.932 247.629 283.106 254.529 291.618C262.201 268.507 251.954 236.214 240.523 212.072C237.794 227.083 233.983 242.972 228.937 259.841Z" fill="#5F62EE"/>
<path d="M174.973 174.31C163.593 185.247 153.397 205.675 161.07 237.607C167.97 237.04 177.753 236.266 186.61 235.44C181.564 212.742 177.753 192.469 174.973 174.31Z" fill="#6366F1"/>
<path opacity="0.2" d="M199.483 288.059C135.838 43.2294 188.206 22.4401 207.979 14.0831C227.753 45.3445 280.069 126.645 216.373 297.808L199.483 288.059Z" fill="url(#paint0_linear_6_8)"/>
<path opacity="0.1" d="M218.227 273.975C154.581 29.1979 206.898 8.357 226.723 0C246.496 31.2614 298.813 112.562 235.116 283.725L218.227 273.975Z" fill="url(#paint1_linear_6_8)"/>
<path opacity="0.15" d="M216.373 297.808C280.069 126.645 227.752 45.3445 207.979 14.0831V292.959L216.373 297.808Z" fill="url(#paint2_linear_6_8)"/>
<path opacity="0.1" d="M226.929 100.284C226.929 115.192 218.175 122.208 207.362 115.966C196.548 109.724 187.794 92.546 187.794 77.6376C187.794 62.7291 196.548 55.7133 207.362 61.9553C218.175 68.1972 226.929 85.3755 226.929 100.284Z" fill="black"/>
<path opacity="0.3" d="M274.508 184.318L413.899 264.948L413.951 337.736L286.866 264.226L274.56 268.249L274.508 184.318Z" fill="url(#paint3_linear_6_8)"/>
<path d="M373.374 277.741V257.984L426 288.42V308.177L373.374 277.741Z" fill="#5F62EE"/>
<path opacity="0.1" d="M310.347 222.75L340.883 240.393V246.789L310.347 229.147V222.75Z" fill="black"/>
<path opacity="0.1" d="M310.399 235.544L365.496 267.424V273.821L310.399 241.94V235.544Z" fill="black"/>
<path opacity="0.15" d="M310.399 248.337L381.716 289.606V296.003L310.399 254.734V248.337Z" fill="black"/>
<path d="M302.829 225.072C302.829 231.056 299.276 233.893 294.899 231.365C290.522 228.837 286.969 221.925 286.969 215.941C286.969 209.957 290.522 207.119 294.899 209.647C299.328 212.175 302.829 219.088 302.829 225.072Z" fill="#5F62EE"/>
<path opacity="0.3" d="M154.272 81.5065L14.8811 0.928558L14.9326 73.717L142.017 147.176L154.324 165.438L154.272 81.5065Z" fill="url(#paint4_linear_6_8)"/>
<path d="M0 29.3011V9.54349L52.6257 39.9795V59.7371L0 29.3011Z" fill="#6366F1"/>
<path opacity="0.15" d="M118.434 78.5145L87.8984 60.872V67.2687L118.434 84.9112V78.5145Z" fill="black"/>
<path opacity="0.15" d="M118.434 91.3079L59.5773 57.2609V63.6576L118.434 97.7047V91.3079Z" fill="black"/>
<path opacity="0.15" d="M118.434 104.101L47.1159 62.8323V69.229L118.434 110.498V104.101Z" fill="black"/>
<path d="M125.951 89.5024C125.951 95.4865 129.504 102.399 133.881 104.927C138.258 107.455 141.811 104.617 141.811 98.6332C141.811 92.6492 138.258 85.7366 133.881 83.2089C129.504 80.7327 125.951 83.5184 125.951 89.5024Z" fill="#6366F1"/>
<path opacity="0.2" d="M135.735 159.196L52.4709 111.066V154.501L135.735 202.631V159.196Z" fill="url(#paint5_linear_6_8)"/>
<path opacity="0.15" d="M73.7891 133.815L102.316 150.323V155.533L73.7891 139.025V133.815Z" fill="black"/>
<path opacity="0.15" d="M73.7891 144.287L127.136 175.136V180.398L73.7891 149.549V144.287Z" fill="black"/>
<path d="M69.412 135.363C69.412 138.922 67.3008 140.625 64.6747 139.129C62.0486 137.633 59.9374 133.506 59.9374 129.895C59.9374 126.335 62.0486 124.633 64.6747 126.129C67.2493 127.676 69.412 131.803 69.412 135.363Z" fill="#6366F1"/>
<path opacity="0.2" d="M383.003 192.005L299.74 143.875V187.31L383.003 235.492V192.005Z" fill="url(#paint6_linear_6_8)"/>
<path opacity="0.15" d="M321.058 166.676L349.585 183.183V188.394L321.058 171.886V166.676Z" fill="black"/>
<path opacity="0.15" d="M321.109 177.148L374.456 207.996V213.258L321.109 182.41V177.148Z" fill="black"/>
<path d="M316.681 168.223C316.681 171.783 314.57 173.485 311.943 171.989C309.317 170.493 307.206 166.366 307.206 162.755C307.206 159.196 309.317 157.493 311.943 158.989C314.57 160.537 316.681 164.664 316.681 168.223Z" fill="#5F62EE"/>
<defs>
<linearGradient id="paint0_linear_6_8" x1="282.178" y1="22.7634" x2="121.675" y2="300.331" gradientUnits="userSpaceOnUse">
<stop/>
<stop offset="1" stop-color="white" stop-opacity="0"/>
</linearGradient>
<linearGradient id="paint1_linear_6_8" x1="300.916" y1="8.68421" x2="140.414" y2="286.252" gradientUnits="userSpaceOnUse">
<stop/>
<stop offset="1" stop-color="white" stop-opacity="0"/>
</linearGradient>
<linearGradient id="paint2_linear_6_8" x1="252.328" y1="83.344" x2="128.421" y2="306.512" gradientUnits="userSpaceOnUse">
<stop stop-opacity="0"/>
<stop offset="1" stop-color="white"/>
</linearGradient>
<linearGradient id="paint3_linear_6_8" x1="334.4" y1="186.675" x2="352.487" y2="333.103" gradientUnits="userSpaceOnUse">
<stop/>
<stop offset="1" stop-color="white" stop-opacity="0"/>
</linearGradient>
<linearGradient id="paint4_linear_6_8" x1="123.874" y1="52.3605" x2="51.7971" y2="108.692" gradientUnits="userSpaceOnUse">
<stop/>
<stop offset="1" stop-color="white" stop-opacity="0"/>
</linearGradient>
<linearGradient id="paint5_linear_6_8" x1="103.484" y1="140.535" x2="84.6561" y2="173.096" gradientUnits="userSpaceOnUse">
<stop/>
<stop offset="1" stop-color="white" stop-opacity="0"/>
</linearGradient>
<linearGradient id="paint6_linear_6_8" x1="350.785" y1="173.384" x2="331.957" y2="205.945" gradientUnits="userSpaceOnUse">
<stop/>
<stop offset="1" stop-color="white" stop-opacity="0"/>
</linearGradient>
</defs>
</svg>
