<svg width="620" height="58" viewBox="0 0 620 58" fill="none" xmlns="http://www.w3.org/2000/svg">
<path d="M64.8737 41.7228C66.1687 41.7228 67.4112 42.1744 68.4044 42.998L68.4656 43.0511L67.8138 44.1049C67.0088 43.361 65.9719 42.9537 64.8781 42.9537C62.4762 42.9537 60.525 44.9284 60.525 47.3592C60.525 49.79 62.4762 51.7647 64.8781 51.7647C67.0525 51.7647 68.8594 50.1442 69.1787 48.0366L69.1875 47.9746H65.46L66.2169 46.7482H70.4431V47.3636C70.4431 50.4718 67.945 53 64.8781 53C61.8069 53 59.3131 50.4718 59.3131 47.3636C59.3044 44.251 61.8025 41.7228 64.8737 41.7228ZM6.065 41.7228C7.58312 41.7228 9.04 42.3604 10.0813 43.4584L10.1337 43.516L9.44688 44.5875C8.61563 43.547 7.39062 42.9493 6.06063 42.9493C3.65875 42.9493 1.7075 44.924 1.7075 47.3548C1.7075 49.7855 3.65875 51.7603 6.06063 51.7603C7.31625 51.7603 8.50625 51.2157 9.33313 50.2593L9.37687 50.2062L10.3 51.0031C9.25 52.265 7.70125 52.9867 6.065 52.9867C2.99812 52.9867 0.5 50.463 0.5 47.3548C0.5 44.251 2.99812 41.7228 6.065 41.7228ZM16.74 41.7892C19.5356 41.7892 20.6512 43.1175 20.6512 45.0347C20.6512 46.6419 19.8462 47.7754 17.9344 48.1606L17.8731 48.1739L20.9444 52.9336H19.4744L16.5737 48.2491H14.4825V52.9336H13.2881V41.7892H16.74ZM42.465 51.8532V52.9336H34.9312V51.8532H42.465ZM24.8862 41.7892L27.9094 46.8766C28.0144 47.0625 28.0756 47.2618 28.1062 47.3858C28.15 47.2574 28.1894 47.0891 28.2944 46.9032L28.3206 46.8589L31.3306 41.7892H32.63L25.7875 52.938H24.6019L27.4325 48.289L23.5738 41.7892H24.8862ZM101.545 51.8532V52.9336H94.0113V51.8532H101.545ZM81.5906 41.7892L88.2056 51.0208C88.1488 50.7596 88.1181 50.6622 88.1137 50.4585V41.7892H89.3037V52.938H88.175L81.5469 43.6754C81.5906 43.8215 81.6475 44.0208 81.6519 44.3041V52.938H80.4619V41.7892H81.5906ZM75.6362 41.7892V52.938H74.4463V41.7892H75.6362ZM47.6581 41.7892L54.2731 51.0208C54.2163 50.7596 54.1856 50.6622 54.1813 50.4585V41.7892H55.3713V52.938H54.2425L47.6144 43.6754C47.6581 43.8215 47.715 44.0208 47.7194 44.3041V52.938H46.5294V41.7892H47.6581ZM101.545 46.5047V47.6027H94.0113V46.5047H101.545ZM42.465 46.5047V47.6027H34.9312V46.5047H42.465ZM16.7575 42.8696H14.4825V47.1511H16.7444C18.4244 47.1511 19.435 46.6552 19.435 45.0347C19.4306 43.4097 18.42 42.8696 16.7575 42.8696ZM104.218 40.3591C104.927 40.3591 105.5 40.9347 105.5 41.652C105.5 42.3692 104.927 42.9448 104.218 42.9448C103.509 42.9448 102.936 42.3692 102.936 41.652C102.941 40.9347 103.514 40.3591 104.218 40.3591ZM101.545 41.7892V42.8696H94.0113V41.7892H101.545ZM42.465 41.7892V42.8696H36.0337L36.6944 41.7892H42.465ZM104.218 40.5761C103.632 40.5761 103.159 41.0542 103.159 41.6475C103.159 42.2408 103.632 42.719 104.218 42.719C104.804 42.719 105.281 42.2408 105.281 41.6475C105.281 41.0587 104.804 40.5761 104.218 40.5761ZM104.227 40.979C104.555 40.979 104.699 41.1472 104.699 41.3819C104.699 41.559 104.621 41.6918 104.441 41.7538L104.415 41.7627L104.765 42.3073H104.511L104.218 41.8468C104.209 41.8379 104.205 41.8158 104.201 41.7981V41.7848H103.947V42.3073H103.737V40.9745H104.227V40.979ZM104.231 41.1826H103.947V41.5856H104.227C104.406 41.5856 104.489 41.5368 104.489 41.3863C104.489 41.2402 104.406 41.1826 104.231 41.1826ZM48.2269 5.08412L48.6119 5.05313C38.2869 7.4839 32.1575 15.3784 32.1575 16.4056V16.41C32.1575 16.4144 32.1619 16.3702 32.1663 16.5694V16.596H32.1706C32.3806 17.7162 35.43 23.1267 47.225 26.3412C33.7063 25.2564 27.5638 18.6017 27.2619 16.6535L27.2575 16.5916H27.2531C27.2531 16.3879 27.2487 16.4277 27.2487 16.441L27.2531 16.3835C27.415 14.3822 35.6881 6.14676 48.2269 5.08412L48.6119 5.05313L48.2269 5.08412ZM52.5188 5C66.5581 5.73942 74.7262 14.1873 74.8006 16.5517V16.5473C74.8006 16.5384 74.7962 16.5473 74.7962 16.6934V16.7199H74.7875C74.6781 17.9066 70.2156 22.7327 63.5394 24.9554C55.38 27.6695 42.2506 26.6821 42.2506 16.3303C42.2506 11.4732 46.1619 7.51932 50.9656 7.51932C55.8131 7.51932 59.7025 11.4909 59.7025 16.3525C59.7025 18.7212 58.6919 21.0148 57.1606 22.6353C58.5913 22.6087 63.7975 22.2235 68.7019 18.1324C69.2444 17.5966 69.59 17.1494 69.7344 16.8749C69.7738 16.8041 69.8306 16.6757 69.8219 16.5561C69.8262 15.4935 64.1869 7.32894 52.5188 5ZM50.9569 11.3182C48.2225 11.3182 46.0088 13.5586 46.0088 16.3259C46.0088 19.0932 48.2225 21.3335 50.9569 21.3335C53.6869 21.3335 55.905 19.0932 55.905 16.3259C55.905 13.563 53.6912 11.3182 50.9569 11.3182Z" fill="#D42D42"/>
<path d="M185.302 52.6108L182.645 45.82L208.286 47.125L207.187 58L185.302 52.6108ZM191.458 0L155.5 16.8418L161.064 42.2216H168.401L167.133 24.0676L168.257 23.7196L172.669 42.2216H180.288L180.005 20.1091L181.131 19.7611L184.987 42.2216H193.055L194.956 15.5102L196.082 15.1622L198.081 42.2216H208.746L212.5 5.07742L191.458 0Z" fill="#D42D42"/>
<path d="M319.823 35.6217L262.503 58V45.2811L303.534 29.2658L319.823 35.6241V35.6217ZM320.5 22.6418L262.5 0V12.7189L320.495 35.3582V22.6442L320.5 22.6418Z" fill="#D42D42"/>
<path d="M402.089 6.64825L414.334 13.5358C416.359 11.4598 419.726 11.3777 421.858 13.3497C422.225 13.688 422.537 14.0771 422.793 14.5024C424.255 16.9868 423.369 20.155 420.818 21.5784C420.386 21.8201 419.922 22.0013 419.433 22.1173V35.8899C422.277 36.5497 424.034 39.3288 423.354 42.0983C423.235 42.5913 423.039 43.065 422.778 43.5024C421.309 45.9747 418.061 46.8229 415.515 45.3923C415.029 45.1192 414.585 44.7663 414.21 44.3555L402.04 51.1995C402.963 53.9158 401.449 56.8424 398.663 57.739C398.124 57.9106 397.566 58 397 58C394.07 58.0024 391.693 55.6921 391.69 52.838C391.69 52.3426 391.762 51.8472 391.909 51.3662L379.661 44.486C377.636 46.5498 374.274 46.6296 372.153 44.6552C370.034 42.6832 369.954 39.4086 371.979 37.3423C372.681 36.6246 373.582 36.1195 374.569 35.8851L374.572 22.1125C371.718 21.4455 369.962 18.6494 370.649 15.8678C370.766 15.3893 370.954 14.9278 371.205 14.5C372.674 12.0253 375.924 11.1795 378.467 12.6102C378.907 12.8543 379.309 13.1612 379.658 13.5213L391.911 6.63375C391.077 3.89567 392.683 1.02225 395.487 0.212669C395.975 0.0700852 396.489 1.89617e-06 397 1.89617e-06C399.931 -0.00241477 402.308 2.3055 402.31 5.15717C402.313 5.66225 402.236 6.16733 402.089 6.64825ZM400.811 8.76767C400.764 8.81842 400.72 8.86192 400.667 8.90784L416.699 35.9503C416.764 35.9286 416.838 35.9117 416.902 35.8947V22.1028C414.061 21.4189 412.332 18.618 413.037 15.8485C413.052 15.7905 413.066 15.7301 413.084 15.6745L400.811 8.76767ZM393.33 8.91025L393.181 8.76525L380.909 15.6576C381.72 18.4005 380.098 21.2594 377.284 22.0497C377.219 22.069 377.157 22.0835 377.095 22.1004V35.8947L377.304 35.9503L393.335 8.90784L393.33 8.91025ZM398.481 10.1355C397.514 10.4062 396.489 10.4062 395.524 10.1355L379.495 37.1756C380.224 37.8595 380.74 38.7343 380.983 39.6913H413.019C413.26 38.7295 413.781 37.8522 414.516 37.1683L398.481 10.1355ZM400.928 49.3507L413.119 42.4922C413.081 42.3787 413.052 42.2651 413.024 42.1491H380.976L380.924 42.3497L393.179 49.242C394.142 48.2657 395.496 47.6639 397 47.6639C398.556 47.6639 399.953 48.314 400.928 49.3507Z" fill="#D42D42"/>
<path d="M484.937 11L473.5 42.3049H479.492L481.135 38.1223H488.751L490.387 42.3049H496.379L484.937 11ZM504.549 13.0913L501.283 18.8233H514.362V42.299H520.342V18.8233H529.601L541.049 47L551.945 18.8233H579.727L576.46 13.0913H547.595L541.062 29.7806L533.968 13.0913H504.549ZM603.16 19.866V41.7806H609.158V32.9087L619.5 42.8233V20.9204H614.049V28.7379L603.16 19.866ZM506.192 20.3903C499.652 20.3903 494.749 25.0913 494.749 31.3476C494.749 37.6097 499.652 42.299 506.186 42.299C508.911 42.299 511.63 41.2563 513.267 39.6951L510 34.4757C508.905 35.5243 507.822 36.0485 506.186 36.0485C504.742 36.0455 503.358 35.4944 502.337 34.5161C501.317 33.5377 500.743 32.2119 500.741 30.8291C500.741 28.2194 502.919 25.6097 506.186 25.6097C507.281 25.6097 508.911 26.1282 509.452 27.1709L513.267 23.0058C511.624 21.4388 508.911 20.3961 506.186 20.3961L506.192 20.3903ZM551.951 20.3903V41.7806H557.943V20.3961L551.951 20.3903ZM565.018 20.3903C562.84 20.3903 560.127 21.4388 560.127 25.6097C560.127 30.8291 566.66 33.9573 566.119 36.0485C565.571 37.0913 564.476 37.0854 563.935 37.0854H560.127V41.7806H566.66C569.386 41.7806 572.105 40.2136 572.105 37.0854C572.105 31.3476 564.482 27.701 566.119 25.6097C566.119 25.0854 567.202 25.0854 567.202 25.0854H571.022V20.3961L565.018 20.3903ZM572.652 20.3903V41.7806H578.638V20.3961L572.652 20.3903ZM591.176 20.3903C584.636 20.3903 579.739 25.0913 579.739 31.3476C579.739 37.0854 584.636 42.299 591.176 42.299C597.71 42.299 602.613 37.6097 602.613 31.3476C602.613 25.0913 597.71 20.3961 591.176 20.3961V20.3903ZM524.162 20.9146V42.3049H530.16V20.9146H524.162ZM591.176 26.134C593.901 26.134 596.621 28.2194 596.621 31.3476C596.619 32.7304 596.045 34.0562 595.024 35.0345C594.004 36.0128 592.62 36.5639 591.176 36.567C587.903 36.567 585.184 34.4816 585.725 31.3476C585.725 28.7379 587.903 26.134 591.176 26.134ZM484.937 27.1709L486.579 32.3903H483.294L484.937 27.1709Z" fill="#D42D42"/>
</svg>
